<mxfile host="app.diagrams.net" agent="Mozilla/5.0 (Macintosh; Intel Mac OS X 10_15_7) AppleWebKit/537.36 (KHTML, like Gecko) Chrome/133.0.0.0 Safari/537.36" version="26.0.16">
  <diagram name="Page-1" id="-H_mtQnk-PTXWXPvYvuk">
    <mxGraphModel dx="1588" dy="1548" grid="1" gridSize="10" guides="1" tooltips="1" connect="1" arrows="1" fold="1" page="1" pageScale="1" pageWidth="1169" pageHeight="827" math="0" shadow="0">
      <root>
        <mxCell id="0" />
        <mxCell id="1" parent="0" />
        <mxCell id="64Rzh4quIV2b90hFJn8Y-18" value="" style="rounded=1;whiteSpace=wrap;html=1;" parent="1" vertex="1">
          <mxGeometry x="90" y="380" width="180" height="380" as="geometry" />
        </mxCell>
        <mxCell id="zA23MoTUsTF4_91t8viU-2" value="&lt;div&gt;Master&lt;/div&gt;MongoDB" style="shape=cylinder3;whiteSpace=wrap;html=1;boundedLbl=1;backgroundOutline=1;size=15;" parent="1" vertex="1">
          <mxGeometry x="150" y="431" width="60" height="80" as="geometry" />
        </mxCell>
        <mxCell id="zA23MoTUsTF4_91t8viU-3" value="pymongo-api" style="rounded=1;whiteSpace=wrap;html=1;" parent="1" vertex="1">
          <mxGeometry x="251" y="-30" width="110" height="60" as="geometry" />
        </mxCell>
        <mxCell id="64Rzh4quIV2b90hFJn8Y-3" value="router" style="rounded=1;whiteSpace=wrap;html=1;" parent="1" vertex="1">
          <mxGeometry x="160" y="280" width="110" height="60" as="geometry" />
        </mxCell>
        <mxCell id="64Rzh4quIV2b90hFJn8Y-6" value="" style="endArrow=classic;startArrow=classic;html=1;rounded=0;" parent="1" edge="1">
          <mxGeometry width="50" height="50" relative="1" as="geometry">
            <mxPoint x="214" y="380" as="sourcePoint" />
            <mxPoint x="214.47" y="340" as="targetPoint" />
          </mxGeometry>
        </mxCell>
        <mxCell id="64Rzh4quIV2b90hFJn8Y-8" value="" style="endArrow=classic;startArrow=classic;html=1;rounded=0;" parent="1" edge="1">
          <mxGeometry width="50" height="50" relative="1" as="geometry">
            <mxPoint x="395" y="380" as="sourcePoint" />
            <mxPoint x="394.66" y="340" as="targetPoint" />
          </mxGeometry>
        </mxCell>
        <mxCell id="64Rzh4quIV2b90hFJn8Y-9" value="configuration&lt;div&gt;server&lt;/div&gt;" style="rounded=1;whiteSpace=wrap;html=1;" parent="1" vertex="1">
          <mxGeometry x="410" y="180" width="140" height="60" as="geometry" />
        </mxCell>
        <mxCell id="64Rzh4quIV2b90hFJn8Y-10" value="" style="endArrow=classic;html=1;rounded=0;" parent="1" edge="1">
          <mxGeometry width="50" height="50" relative="1" as="geometry">
            <mxPoint x="439" y="280" as="sourcePoint" />
            <mxPoint x="439" y="240" as="targetPoint" />
          </mxGeometry>
        </mxCell>
        <mxCell id="64Rzh4quIV2b90hFJn8Y-11" value="" style="endArrow=classic;html=1;rounded=0;exitX=1;exitY=0.5;exitDx=0;exitDy=0;exitPerimeter=0;" parent="1" edge="1">
          <mxGeometry width="50" height="50" relative="1" as="geometry">
            <mxPoint x="445" y="434" as="sourcePoint" />
            <mxPoint x="520" y="240" as="targetPoint" />
            <Array as="points">
              <mxPoint x="520" y="434" />
            </Array>
          </mxGeometry>
        </mxCell>
        <mxCell id="64Rzh4quIV2b90hFJn8Y-13" value="" style="endArrow=classic;html=1;rounded=0;entryX=0.5;entryY=1;entryDx=0;entryDy=0;" parent="1" edge="1">
          <mxGeometry width="50" height="50" relative="1" as="geometry">
            <mxPoint x="270" y="300" as="sourcePoint" />
            <mxPoint x="459" y="240" as="targetPoint" />
            <Array as="points">
              <mxPoint x="459" y="298" />
            </Array>
          </mxGeometry>
        </mxCell>
        <mxCell id="64Rzh4quIV2b90hFJn8Y-12" value="" style="endArrow=none;dashed=1;html=1;dashPattern=1 3;strokeWidth=2;rounded=0;exitX=1;exitY=0.5;exitDx=0;exitDy=0;" parent="1" edge="1">
          <mxGeometry width="50" height="50" relative="1" as="geometry">
            <mxPoint x="270" y="315" as="sourcePoint" />
            <mxPoint x="340" y="315" as="targetPoint" />
          </mxGeometry>
        </mxCell>
        <mxCell id="64Rzh4quIV2b90hFJn8Y-4" value="router" style="rounded=1;whiteSpace=wrap;html=1;" parent="1" vertex="1">
          <mxGeometry x="340" y="280" width="110" height="60" as="geometry" />
        </mxCell>
        <mxCell id="64Rzh4quIV2b90hFJn8Y-14" value="" style="endArrow=classic;html=1;rounded=0;entryX=0.636;entryY=1;entryDx=0;entryDy=0;entryPerimeter=0;" parent="1" target="64Rzh4quIV2b90hFJn8Y-9" edge="1">
          <mxGeometry width="50" height="50" relative="1" as="geometry">
            <mxPoint x="270" y="420" as="sourcePoint" />
            <mxPoint x="295" y="380" as="targetPoint" />
            <Array as="points">
              <mxPoint x="499" y="420" />
            </Array>
          </mxGeometry>
        </mxCell>
        <mxCell id="64Rzh4quIV2b90hFJn8Y-19" value="Shard 1" style="text;strokeColor=none;align=center;fillColor=none;html=1;verticalAlign=middle;whiteSpace=wrap;rounded=0;" parent="1" vertex="1">
          <mxGeometry x="150" y="394" width="60" height="30" as="geometry" />
        </mxCell>
        <mxCell id="64Rzh4quIV2b90hFJn8Y-20" value="&lt;div&gt;Slave 1&lt;/div&gt;MongoDB" style="shape=cylinder3;whiteSpace=wrap;html=1;boundedLbl=1;backgroundOutline=1;size=15;" parent="1" vertex="1">
          <mxGeometry x="150" y="544" width="60" height="80" as="geometry" />
        </mxCell>
        <mxCell id="64Rzh4quIV2b90hFJn8Y-21" value="&lt;div&gt;Slave 2&lt;/div&gt;MongoDB" style="shape=cylinder3;whiteSpace=wrap;html=1;boundedLbl=1;backgroundOutline=1;size=15;" parent="1" vertex="1">
          <mxGeometry x="150" y="650" width="60" height="80" as="geometry" />
        </mxCell>
        <mxCell id="64Rzh4quIV2b90hFJn8Y-22" value="" style="endArrow=none;dashed=1;html=1;dashPattern=1 3;strokeWidth=2;rounded=0;exitX=0.5;exitY=0;exitDx=0;exitDy=0;exitPerimeter=0;" parent="1" source="64Rzh4quIV2b90hFJn8Y-20" edge="1">
          <mxGeometry width="50" height="50" relative="1" as="geometry">
            <mxPoint x="130" y="561" as="sourcePoint" />
            <mxPoint x="180" y="511" as="targetPoint" />
          </mxGeometry>
        </mxCell>
        <mxCell id="64Rzh4quIV2b90hFJn8Y-23" value="" style="endArrow=none;dashed=1;html=1;dashPattern=1 3;strokeWidth=2;rounded=0;" parent="1" edge="1">
          <mxGeometry width="50" height="50" relative="1" as="geometry">
            <mxPoint x="180" y="650" as="sourcePoint" />
            <mxPoint x="179.58" y="624" as="targetPoint" />
          </mxGeometry>
        </mxCell>
        <mxCell id="64Rzh4quIV2b90hFJn8Y-24" value="" style="rounded=1;whiteSpace=wrap;html=1;" parent="1" vertex="1">
          <mxGeometry x="300" y="380" width="180" height="380" as="geometry" />
        </mxCell>
        <mxCell id="64Rzh4quIV2b90hFJn8Y-25" value="&lt;div&gt;Master&lt;/div&gt;MongoDB" style="shape=cylinder3;whiteSpace=wrap;html=1;boundedLbl=1;backgroundOutline=1;size=15;" parent="1" vertex="1">
          <mxGeometry x="360" y="431" width="60" height="80" as="geometry" />
        </mxCell>
        <mxCell id="64Rzh4quIV2b90hFJn8Y-26" value="&lt;div&gt;Slave 1&lt;/div&gt;MongoDB" style="shape=cylinder3;whiteSpace=wrap;html=1;boundedLbl=1;backgroundOutline=1;size=15;" parent="1" vertex="1">
          <mxGeometry x="360" y="544" width="60" height="80" as="geometry" />
        </mxCell>
        <mxCell id="64Rzh4quIV2b90hFJn8Y-27" value="&lt;div&gt;Slave 2&lt;/div&gt;MongoDB" style="shape=cylinder3;whiteSpace=wrap;html=1;boundedLbl=1;backgroundOutline=1;size=15;" parent="1" vertex="1">
          <mxGeometry x="360" y="650" width="60" height="80" as="geometry" />
        </mxCell>
        <mxCell id="64Rzh4quIV2b90hFJn8Y-28" value="" style="endArrow=none;dashed=1;html=1;dashPattern=1 3;strokeWidth=2;rounded=0;exitX=0.5;exitY=0;exitDx=0;exitDy=0;exitPerimeter=0;" parent="1" source="64Rzh4quIV2b90hFJn8Y-26" edge="1">
          <mxGeometry width="50" height="50" relative="1" as="geometry">
            <mxPoint x="340" y="561" as="sourcePoint" />
            <mxPoint x="390" y="511" as="targetPoint" />
          </mxGeometry>
        </mxCell>
        <mxCell id="64Rzh4quIV2b90hFJn8Y-29" value="Shard 2" style="text;strokeColor=none;align=center;fillColor=none;html=1;verticalAlign=middle;whiteSpace=wrap;rounded=0;" parent="1" vertex="1">
          <mxGeometry x="360" y="394" width="60" height="30" as="geometry" />
        </mxCell>
        <mxCell id="64Rzh4quIV2b90hFJn8Y-30" value="Redis Cache" style="rounded=1;whiteSpace=wrap;html=1;" parent="1" vertex="1">
          <mxGeometry x="158" y="130" width="110" height="60" as="geometry" />
        </mxCell>
        <mxCell id="64Rzh4quIV2b90hFJn8Y-32" value="" style="endArrow=none;html=1;rounded=0;entryX=0.445;entryY=1.017;entryDx=0;entryDy=0;entryPerimeter=0;" parent="1" edge="1" target="zA23MoTUsTF4_91t8viU-3">
          <mxGeometry width="50" height="50" relative="1" as="geometry">
            <mxPoint x="301" y="240" as="sourcePoint" />
            <mxPoint x="301" y="78" as="targetPoint" />
          </mxGeometry>
        </mxCell>
        <mxCell id="64Rzh4quIV2b90hFJn8Y-33" value="" style="endArrow=none;html=1;rounded=0;" parent="1" edge="1">
          <mxGeometry width="50" height="50" relative="1" as="geometry">
            <mxPoint x="210" y="240" as="sourcePoint" />
            <mxPoint x="390" y="240" as="targetPoint" />
          </mxGeometry>
        </mxCell>
        <mxCell id="64Rzh4quIV2b90hFJn8Y-34" value="" style="endArrow=classic;html=1;rounded=0;entryX=0.454;entryY=-0.009;entryDx=0;entryDy=0;entryPerimeter=0;" parent="1" target="64Rzh4quIV2b90hFJn8Y-3" edge="1">
          <mxGeometry width="50" height="50" relative="1" as="geometry">
            <mxPoint x="210" y="240" as="sourcePoint" />
            <mxPoint x="260" y="190" as="targetPoint" />
          </mxGeometry>
        </mxCell>
        <mxCell id="64Rzh4quIV2b90hFJn8Y-35" value="" style="endArrow=classic;html=1;rounded=0;" parent="1" edge="1">
          <mxGeometry width="50" height="50" relative="1" as="geometry">
            <mxPoint x="389.5" y="240" as="sourcePoint" />
            <mxPoint x="390" y="280" as="targetPoint" />
          </mxGeometry>
        </mxCell>
        <mxCell id="64Rzh4quIV2b90hFJn8Y-36" value="" style="endArrow=classic;html=1;rounded=0;entryX=1;entryY=0.5;entryDx=0;entryDy=0;" parent="1" target="64Rzh4quIV2b90hFJn8Y-30" edge="1">
          <mxGeometry width="50" height="50" relative="1" as="geometry">
            <mxPoint x="300" y="160" as="sourcePoint" />
            <mxPoint x="220" y="130" as="targetPoint" />
          </mxGeometry>
        </mxCell>
        <mxCell id="64Rzh4quIV2b90hFJn8Y-37" value="" style="endArrow=none;dashed=1;html=1;dashPattern=1 3;strokeWidth=2;rounded=0;" parent="1" edge="1">
          <mxGeometry width="50" height="50" relative="1" as="geometry">
            <mxPoint x="390" y="650" as="sourcePoint" />
            <mxPoint x="389.64" y="624" as="targetPoint" />
          </mxGeometry>
        </mxCell>
        <mxCell id="kx9pYj5kJw5RVi2nfDfX-1" value="Gateway" style="rounded=1;whiteSpace=wrap;html=1;" vertex="1" parent="1">
          <mxGeometry x="459" y="-210" width="110" height="60" as="geometry" />
        </mxCell>
        <mxCell id="kx9pYj5kJw5RVi2nfDfX-4" value="Consul" style="rounded=1;whiteSpace=wrap;html=1;" vertex="1" parent="1">
          <mxGeometry x="820" y="-210" width="110" height="60" as="geometry" />
        </mxCell>
        <mxCell id="kx9pYj5kJw5RVi2nfDfX-5" value="" style="endArrow=classic;html=1;rounded=0;" edge="1" parent="1">
          <mxGeometry width="50" height="50" relative="1" as="geometry">
            <mxPoint x="570" y="-180" as="sourcePoint" />
            <mxPoint x="820" y="-180" as="targetPoint" />
          </mxGeometry>
        </mxCell>
        <mxCell id="kx9pYj5kJw5RVi2nfDfX-6" value="" style="endArrow=classic;html=1;rounded=0;exitX=1;exitY=0.25;exitDx=0;exitDy=0;" edge="1" parent="1" source="zA23MoTUsTF4_91t8viU-3">
          <mxGeometry width="50" height="50" relative="1" as="geometry">
            <mxPoint x="800" y="-100" as="sourcePoint" />
            <mxPoint x="850" y="-150" as="targetPoint" />
            <Array as="points">
              <mxPoint x="850" y="-15" />
            </Array>
          </mxGeometry>
        </mxCell>
        <mxCell id="kx9pYj5kJw5RVi2nfDfX-2" value="pymongo-api" style="rounded=1;whiteSpace=wrap;html=1;" vertex="1" parent="1">
          <mxGeometry x="460" y="-30" width="110" height="60" as="geometry" />
        </mxCell>
        <mxCell id="kx9pYj5kJw5RVi2nfDfX-7" value="" style="endArrow=classic;html=1;rounded=0;entryX=0.5;entryY=1;entryDx=0;entryDy=0;exitX=1;exitY=0.5;exitDx=0;exitDy=0;" edge="1" parent="1" source="kx9pYj5kJw5RVi2nfDfX-2" target="kx9pYj5kJw5RVi2nfDfX-4">
          <mxGeometry width="50" height="50" relative="1" as="geometry">
            <mxPoint x="750" y="30" as="sourcePoint" />
            <mxPoint x="800" y="-20" as="targetPoint" />
            <Array as="points">
              <mxPoint x="875" />
            </Array>
          </mxGeometry>
        </mxCell>
        <mxCell id="kx9pYj5kJw5RVi2nfDfX-3" value="pymongo-api" style="rounded=1;whiteSpace=wrap;html=1;" vertex="1" parent="1">
          <mxGeometry x="680" y="-32" width="110" height="60" as="geometry" />
        </mxCell>
        <mxCell id="kx9pYj5kJw5RVi2nfDfX-8" value="" style="endArrow=classic;html=1;rounded=0;entryX=0.75;entryY=1;entryDx=0;entryDy=0;exitX=1;exitY=0.75;exitDx=0;exitDy=0;" edge="1" parent="1" source="kx9pYj5kJw5RVi2nfDfX-3" target="kx9pYj5kJw5RVi2nfDfX-4">
          <mxGeometry width="50" height="50" relative="1" as="geometry">
            <mxPoint x="750" y="30" as="sourcePoint" />
            <mxPoint x="800" y="-20" as="targetPoint" />
            <Array as="points">
              <mxPoint x="903" y="13" />
            </Array>
          </mxGeometry>
        </mxCell>
        <mxCell id="kx9pYj5kJw5RVi2nfDfX-9" value="Регистрация" style="text;strokeColor=none;align=center;fillColor=none;html=1;verticalAlign=middle;whiteSpace=wrap;rounded=0;" vertex="1" parent="1">
          <mxGeometry x="920" y="-90" width="60" height="30" as="geometry" />
        </mxCell>
        <mxCell id="kx9pYj5kJw5RVi2nfDfX-10" value="Получить список сервисов" style="text;strokeColor=none;align=center;fillColor=none;html=1;verticalAlign=middle;whiteSpace=wrap;rounded=0;" vertex="1" parent="1">
          <mxGeometry x="637" y="-220" width="134" height="30" as="geometry" />
        </mxCell>
        <mxCell id="kx9pYj5kJw5RVi2nfDfX-11" value="" style="endArrow=none;html=1;rounded=0;" edge="1" parent="1">
          <mxGeometry width="50" height="50" relative="1" as="geometry">
            <mxPoint x="520" y="-80" as="sourcePoint" />
            <mxPoint x="520" y="-150" as="targetPoint" />
          </mxGeometry>
        </mxCell>
        <mxCell id="kx9pYj5kJw5RVi2nfDfX-12" value="" style="endArrow=none;html=1;rounded=0;" edge="1" parent="1">
          <mxGeometry width="50" height="50" relative="1" as="geometry">
            <mxPoint x="300" y="-80" as="sourcePoint" />
            <mxPoint x="740" y="-80" as="targetPoint" />
          </mxGeometry>
        </mxCell>
        <mxCell id="kx9pYj5kJw5RVi2nfDfX-13" value="" style="endArrow=classic;html=1;rounded=0;entryX=0.444;entryY=0.004;entryDx=0;entryDy=0;entryPerimeter=0;" edge="1" parent="1" target="zA23MoTUsTF4_91t8viU-3">
          <mxGeometry width="50" height="50" relative="1" as="geometry">
            <mxPoint x="300" y="-80" as="sourcePoint" />
            <mxPoint x="350" y="-130" as="targetPoint" />
          </mxGeometry>
        </mxCell>
        <mxCell id="kx9pYj5kJw5RVi2nfDfX-14" value="" style="endArrow=classic;html=1;rounded=0;entryX=0.444;entryY=0.004;entryDx=0;entryDy=0;entryPerimeter=0;" edge="1" parent="1">
          <mxGeometry width="50" height="50" relative="1" as="geometry">
            <mxPoint x="520" y="-80" as="sourcePoint" />
            <mxPoint x="520" y="-30" as="targetPoint" />
          </mxGeometry>
        </mxCell>
        <mxCell id="kx9pYj5kJw5RVi2nfDfX-15" value="" style="endArrow=classic;html=1;rounded=0;entryX=0.444;entryY=0.004;entryDx=0;entryDy=0;entryPerimeter=0;" edge="1" parent="1">
          <mxGeometry width="50" height="50" relative="1" as="geometry">
            <mxPoint x="740" y="-81" as="sourcePoint" />
            <mxPoint x="740" y="-31" as="targetPoint" />
          </mxGeometry>
        </mxCell>
        <mxCell id="kx9pYj5kJw5RVi2nfDfX-16" value="" style="endArrow=classic;html=1;rounded=0;" edge="1" parent="1">
          <mxGeometry width="50" height="50" relative="1" as="geometry">
            <mxPoint x="510" y="30" as="sourcePoint" />
            <mxPoint x="300" y="80" as="targetPoint" />
            <Array as="points">
              <mxPoint x="510" y="80" />
            </Array>
          </mxGeometry>
        </mxCell>
        <mxCell id="kx9pYj5kJw5RVi2nfDfX-17" value="" style="endArrow=classic;html=1;rounded=0;exitX=0.369;exitY=0.992;exitDx=0;exitDy=0;exitPerimeter=0;" edge="1" parent="1" source="kx9pYj5kJw5RVi2nfDfX-3">
          <mxGeometry width="50" height="50" relative="1" as="geometry">
            <mxPoint x="720" y="30" as="sourcePoint" />
            <mxPoint x="300" y="120" as="targetPoint" />
            <Array as="points">
              <mxPoint x="720" y="120" />
            </Array>
          </mxGeometry>
        </mxCell>
        <mxCell id="kx9pYj5kJw5RVi2nfDfX-20" value="" style="whiteSpace=wrap;html=1;aspect=fixed;" vertex="1" parent="1">
          <mxGeometry x="90" y="-590" width="230" height="230" as="geometry" />
        </mxCell>
        <mxCell id="kx9pYj5kJw5RVi2nfDfX-21" value="Регион 1" style="text;strokeColor=none;align=center;fillColor=none;html=1;verticalAlign=middle;whiteSpace=wrap;rounded=0;" vertex="1" parent="1">
          <mxGeometry x="110" y="-570" width="60" height="30" as="geometry" />
        </mxCell>
        <mxCell id="kx9pYj5kJw5RVi2nfDfX-24" value="CDN" style="rounded=1;whiteSpace=wrap;html=1;" vertex="1" parent="1">
          <mxGeometry x="116" y="-449" width="180" height="60" as="geometry" />
        </mxCell>
        <mxCell id="kx9pYj5kJw5RVi2nfDfX-26" value="" style="whiteSpace=wrap;html=1;aspect=fixed;" vertex="1" parent="1">
          <mxGeometry x="460" y="-590" width="230" height="230" as="geometry" />
        </mxCell>
        <mxCell id="kx9pYj5kJw5RVi2nfDfX-27" value="Регион 2" style="text;strokeColor=none;align=center;fillColor=none;html=1;verticalAlign=middle;whiteSpace=wrap;rounded=0;" vertex="1" parent="1">
          <mxGeometry x="480" y="-570" width="60" height="30" as="geometry" />
        </mxCell>
        <mxCell id="kx9pYj5kJw5RVi2nfDfX-28" value="CDN" style="rounded=1;whiteSpace=wrap;html=1;" vertex="1" parent="1">
          <mxGeometry x="486" y="-447" width="180" height="60" as="geometry" />
        </mxCell>
        <mxCell id="kx9pYj5kJw5RVi2nfDfX-29" value="" style="whiteSpace=wrap;html=1;aspect=fixed;" vertex="1" parent="1">
          <mxGeometry x="830" y="-590" width="230" height="230" as="geometry" />
        </mxCell>
        <mxCell id="kx9pYj5kJw5RVi2nfDfX-30" value="Регион 3" style="text;strokeColor=none;align=center;fillColor=none;html=1;verticalAlign=middle;whiteSpace=wrap;rounded=0;" vertex="1" parent="1">
          <mxGeometry x="850" y="-570" width="60" height="30" as="geometry" />
        </mxCell>
        <mxCell id="kx9pYj5kJw5RVi2nfDfX-31" value="CDN" style="rounded=1;whiteSpace=wrap;html=1;" vertex="1" parent="1">
          <mxGeometry x="856" y="-447" width="180" height="60" as="geometry" />
        </mxCell>
        <mxCell id="kx9pYj5kJw5RVi2nfDfX-33" value="" style="endArrow=none;html=1;rounded=0;" edge="1" parent="1">
          <mxGeometry width="50" height="50" relative="1" as="geometry">
            <mxPoint x="200" y="-280" as="sourcePoint" />
            <mxPoint x="960" y="-280" as="targetPoint" />
          </mxGeometry>
        </mxCell>
        <mxCell id="kx9pYj5kJw5RVi2nfDfX-34" value="" style="endArrow=none;html=1;rounded=0;entryX=0.5;entryY=1;entryDx=0;entryDy=0;" edge="1" parent="1" target="kx9pYj5kJw5RVi2nfDfX-26">
          <mxGeometry width="50" height="50" relative="1" as="geometry">
            <mxPoint x="575" y="-280" as="sourcePoint" />
            <mxPoint x="560" y="-330" as="targetPoint" />
          </mxGeometry>
        </mxCell>
        <mxCell id="kx9pYj5kJw5RVi2nfDfX-35" value="" style="endArrow=none;html=1;rounded=0;entryX=0.5;entryY=1;entryDx=0;entryDy=0;" edge="1" parent="1">
          <mxGeometry width="50" height="50" relative="1" as="geometry">
            <mxPoint x="200" y="-280" as="sourcePoint" />
            <mxPoint x="200" y="-360" as="targetPoint" />
          </mxGeometry>
        </mxCell>
        <mxCell id="kx9pYj5kJw5RVi2nfDfX-36" value="" style="endArrow=none;html=1;rounded=0;entryX=0.5;entryY=1;entryDx=0;entryDy=0;" edge="1" parent="1">
          <mxGeometry width="50" height="50" relative="1" as="geometry">
            <mxPoint x="960" y="-280" as="sourcePoint" />
            <mxPoint x="960" y="-360" as="targetPoint" />
          </mxGeometry>
        </mxCell>
        <mxCell id="kx9pYj5kJw5RVi2nfDfX-37" value="" style="endArrow=classic;html=1;rounded=0;" edge="1" parent="1">
          <mxGeometry width="50" height="50" relative="1" as="geometry">
            <mxPoint x="520" y="-280" as="sourcePoint" />
            <mxPoint x="520" y="-210" as="targetPoint" />
          </mxGeometry>
        </mxCell>
        <mxCell id="kx9pYj5kJw5RVi2nfDfX-39" value="Пользователь 1" style="rounded=1;whiteSpace=wrap;html=1;" vertex="1" parent="1">
          <mxGeometry x="146.5" y="-521" width="117" height="30" as="geometry" />
        </mxCell>
        <mxCell id="kx9pYj5kJw5RVi2nfDfX-40" value="" style="endArrow=classic;html=1;rounded=0;entryX=0.473;entryY=-0.025;entryDx=0;entryDy=0;entryPerimeter=0;" edge="1" parent="1" target="kx9pYj5kJw5RVi2nfDfX-24">
          <mxGeometry width="50" height="50" relative="1" as="geometry">
            <mxPoint x="201" y="-490" as="sourcePoint" />
            <mxPoint x="251" y="-540" as="targetPoint" />
          </mxGeometry>
        </mxCell>
        <mxCell id="kx9pYj5kJw5RVi2nfDfX-42" value="Пользователь 2" style="rounded=1;whiteSpace=wrap;html=1;" vertex="1" parent="1">
          <mxGeometry x="519.5" y="-519" width="117" height="30" as="geometry" />
        </mxCell>
        <mxCell id="kx9pYj5kJw5RVi2nfDfX-43" value="" style="endArrow=classic;html=1;rounded=0;entryX=0.473;entryY=-0.025;entryDx=0;entryDy=0;entryPerimeter=0;" edge="1" parent="1">
          <mxGeometry width="50" height="50" relative="1" as="geometry">
            <mxPoint x="574" y="-488" as="sourcePoint" />
            <mxPoint x="574" y="-448" as="targetPoint" />
          </mxGeometry>
        </mxCell>
        <mxCell id="kx9pYj5kJw5RVi2nfDfX-44" value="Пользователь 3" style="rounded=1;whiteSpace=wrap;html=1;" vertex="1" parent="1">
          <mxGeometry x="889.5" y="-518" width="117" height="30" as="geometry" />
        </mxCell>
        <mxCell id="kx9pYj5kJw5RVi2nfDfX-45" value="" style="endArrow=classic;html=1;rounded=0;entryX=0.473;entryY=-0.025;entryDx=0;entryDy=0;entryPerimeter=0;" edge="1" parent="1">
          <mxGeometry width="50" height="50" relative="1" as="geometry">
            <mxPoint x="944" y="-487" as="sourcePoint" />
            <mxPoint x="944" y="-447" as="targetPoint" />
          </mxGeometry>
        </mxCell>
      </root>
    </mxGraphModel>
  </diagram>
</mxfile>
